<svg width="25" height="24" viewBox="0 0 25 24" fill="none" xmlns="http://www.w3.org/2000/svg">
<path d="M20.5194 4.88129L19.7834 4.14535C19.5755 3.93736 19.1915 3.96937 18.9515 4.25731L16.3913 6.80128C15.2392 6.30533 13.9753 6.06533 12.6473 6.06533C8.69515 6.08127 5.27138 8.38524 3.62326 11.6974C3.52723 11.9054 3.52723 12.1614 3.62326 12.3374C4.39119 13.9054 5.54326 15.2014 6.98327 16.1774L4.88727 18.3053C4.64727 18.5453 4.61526 18.9293 4.77531 19.1373L5.51125 19.8733C5.71925 20.0812 6.10323 20.0492 6.34323 19.7613L20.3911 5.7134C20.6952 5.47354 20.7272 5.08958 20.5192 4.88156L20.5194 4.88129ZM13.4953 9.71318C13.2233 9.64916 12.9353 9.5692 12.6633 9.5692C11.3032 9.5692 10.2154 10.6572 10.2154 12.0171C10.2154 12.2891 10.2794 12.5771 10.3593 12.8491L9.28721 13.9051C8.96725 13.3452 8.79126 12.7211 8.79126 12.0172C8.79126 9.88919 10.5033 8.17717 12.6313 8.17717C13.3353 8.17717 13.9593 8.35315 14.5193 8.67311L13.4953 9.71318Z" fill="#666666" fill-opacity="0.8"/>
<path d="M21.6714 11.6974C21.1114 10.5773 20.3753 9.56941 19.4634 8.75338L16.4874 11.6974V12.0173C16.4874 14.1453 14.7754 15.8573 12.6474 15.8573H12.3274L10.4395 17.7453C11.1435 17.8893 11.8795 17.9853 12.5995 17.9853C16.5516 17.9853 19.9754 15.6814 21.6235 12.3532C21.7675 12.1291 21.7675 11.9052 21.6714 11.6972L21.6714 11.6974Z" fill="#666666" fill-opacity="0.8"/>
</svg>
